<svg
    xmlns="http://www.w3.org/2000/svg"
    xmlns:xlink="http://www.w3.org/1999/xlink"
    preserveAspectRatio="xMidYMid meet"
    width="604"
    height="127"
    viewBox="82 45 604 127"
>
    <defs>
        <animate repeatCount="1" dur="4.68s" begin="0s" xlink:href="#_R_G_L_1_G" fill="freeze" attributeName="opacity" from="0" to="1" keyTimes="0;0.4615385;0.5726496;1" values="0;0;1;1" keySplines="0.167 0.167 0.833 0.833;0.167 0.167 0.833 0.833;0 0 0 0" calcMode="spline"/>
        <animateTransform repeatCount="1" dur="4.68s" begin="0s" xlink:href="#_R_G_L_0_G_L_3_G" fill="freeze" attributeName="transform" from="1.61538 0" to="1.61538 1.615" type="scale" additive="sum" keyTimes="0;0.0940171;1" values="1.61538 0;1.61538 1.615;1.61538 1.615" keySplines="0.537 0 0.667 1;0 0 0 0" calcMode="spline"/>
        <animateTransform repeatCount="1" dur="4.68s" begin="0s" xlink:href="#_R_G_L_0_G_L_3_G" fill="freeze" attributeName="transform" from="-189 -39" to="-189 -39" type="translate" additive="sum" keyTimes="0;1" values="-189 -39;-189 -39" keySplines="0 0 1 1" calcMode="spline"/>
        <animateTransform repeatCount="1" dur="4.68s" begin="0s" xlink:href="#_R_G_L_0_G_L_2_G" fill="freeze" attributeName="transform" from="1.61538 0" to="1.61538 1.615" type="scale" additive="sum" keyTimes="0;0.017094;0.1111111;1" values="1.61538 0;1.61538 0;1.61538 1.615;1.61538 1.615" keySplines="0.537 0 0.667 1;0.537 0 0.667 1;0 0 0 0" calcMode="spline"/>
        <animateTransform repeatCount="1" dur="4.68s" begin="0s" xlink:href="#_R_G_L_0_G_L_2_G" fill="freeze" attributeName="transform" from="-189 -39" to="-189 -39" type="translate" additive="sum" keyTimes="0;1" values="-189 -39;-189 -39" keySplines="0 0 1 1" calcMode="spline"/>
        <animateTransform repeatCount="1" dur="4.68s" begin="0s" xlink:href="#_R_G_L_0_G_L_1_G" fill="freeze" attributeName="transform" from="1.61538 0" to="1.61538 1.615" type="scale" additive="sum" keyTimes="0;0.034188;0.1282051;1" values="1.61538 0;1.61538 0;1.61538 1.615;1.61538 1.615" keySplines="0.537 0 0.667 1;0.537 0 0.667 1;0 0 0 0" calcMode="spline"/>
        <animateTransform repeatCount="1" dur="4.68s" begin="0s" xlink:href="#_R_G_L_0_G_L_1_G" fill="freeze" attributeName="transform" from="-189 -39" to="-189 -39" type="translate" additive="sum" keyTimes="0;1" values="-189 -39;-189 -39" keySplines="0 0 1 1" calcMode="spline"/>
        <animateTransform repeatCount="1" dur="4.68s" begin="0s" xlink:href="#_R_G_L_0_G_L_0_G" fill="freeze" attributeName="transform" from="1.61538 0" to="1.61538 1.615" type="scale" additive="sum" keyTimes="0;0.0512821;0.1452991;1" values="1.61538 0;1.61538 0;1.61538 1.615;1.61538 1.615" keySplines="0.333 0 0.667 1;0.333 0 0.667 1;0 0 0 0" calcMode="spline"/>
        <animateTransform repeatCount="1" dur="4.68s" begin="0s" xlink:href="#_R_G_L_0_G_L_0_G" fill="freeze" attributeName="transform" from="-189 -39" to="-189 -39" type="translate" additive="sum" keyTimes="0;1" values="-189 -39;-189 -39" keySplines="0 0 1 1" calcMode="spline"/>
        <animate attributeType="XML" attributeName="opacity" dur="5s" from="0" to="1" xlink:href="#time_group"/>
    </defs>

    <g id="_R_G">
        <g id="_R_G_L_1_G" transform=" translate(384, 107) scale(1.6, 1.6) translate(-189, -39)">
            <path id="_R_G_L_1_G_D_0_P_0" fill="#ffffff" fill-opacity="1" fill-rule="nonzero" d=" M165.45 73.73 C165.45,73.73 153.35,73.73 153.35,73.73 C153.35,73.73 153.35,3.85 153.35,3.85 C153.35,3.85 165.45,3.85 165.45,3.85 C165.45,3.85 165.45,73.73 165.45,73.73z "/>
            <path id="_R_G_L_1_G_D_1_P_0" fill="#ffffff" fill-opacity="1" fill-rule="nonzero" d=" M229.64 46.86 C229.64,46.86 216.11,46.86 216.11,46.86 C216.11,46.86 216.11,73.73 216.11,73.73 C216.11,73.73 203.97,73.73 203.97,73.73 C203.97,73.73 203.97,3.85 203.97,3.85 C203.97,3.85 228.54,3.85 228.54,3.85 C236.6,3.85 242.83,5.66 247.21,9.28 C251.59,12.9 253.79,18.13 253.79,24.99 C253.79,29.66 252.66,33.58 250.4,36.73 C248.15,39.89 245,42.31 240.97,44.01 C240.97,44.01 256.67,73.11 256.67,73.11 C256.67,73.11 256.67,73.73 256.67,73.73 C256.67,73.73 243.66,73.73 243.66,73.73 C243.66,73.73 229.64,46.86 229.64,46.86z  M216.11 37.07 C216.11,37.07 228.59,37.07 228.59,37.07 C232.68,37.07 235.88,36.03 238.19,33.97 C240.49,31.91 241.64,29.08 241.64,25.5 C241.64,21.75 240.58,18.86 238.45,16.81 C236.32,14.76 233.15,13.71 228.92,13.64 C228.92,13.64 216.11,13.64 216.11,13.64 C216.11,13.64 216.11,37.07 216.11,37.07z "/>
            <path id="_R_G_L_1_G_D_2_P_0" fill="#ffffff" fill-opacity="1" fill-rule="nonzero" d=" M295.81 73.73 C295.81,73.73 283.72,73.73 283.72,73.73 C283.72,73.73 283.72,3.85 283.72,3.85 C283.72,3.85 295.81,3.85 295.81,3.85 C295.81,3.85 295.81,73.73 295.81,73.73z "/>
            <path id="_R_G_L_1_G_D_3_P_0" fill="#ffffff" fill-opacity="1" fill-rule="nonzero" d=" M364.96 55.74 C364.96,52.66 363.88,50.3 361.72,48.63 C359.56,46.97 355.66,45.29 350.03,43.59 C344.4,41.9 339.92,40.01 336.59,37.93 C330.23,33.93 327.04,28.71 327.04,22.28 C327.04,16.65 329.34,12.01 333.93,8.36 C338.52,4.72 344.48,2.89 351.81,2.89 C356.67,2.89 361.01,3.79 364.81,5.58 C368.62,7.37 371.61,9.92 373.79,13.24 C375.97,16.55 377.05,20.22 377.05,24.25 C377.05,24.25 364.96,24.25 364.96,24.25 C364.96,20.6 363.81,17.75 361.53,15.68 C359.24,13.62 355.97,12.59 351.71,12.59 C347.74,12.59 344.66,13.44 342.47,15.13 C340.28,16.83 339.18,19.2 339.18,22.24 C339.18,24.8 340.37,26.93 342.74,28.64 C345.1,30.35 349.01,32.02 354.45,33.63 C359.89,35.25 364.25,37.09 367.55,39.15 C370.85,41.22 373.26,43.59 374.8,46.26 C376.33,48.93 377.1,52.06 377.1,55.64 C377.1,61.46 374.87,66.09 370.41,69.53 C365.94,72.97 359.89,74.69 352.24,74.69 C347.18,74.69 342.54,73.76 338.3,71.89 C334.06,70.01 330.76,67.43 328.41,64.13 C326.06,60.84 324.88,57 324.88,52.61 C324.88,52.61 337.02,52.61 337.02,52.61 C337.02,56.58 338.34,59.66 340.96,61.83 C343.58,64.01 347.34,65.09 352.24,65.09 C356.46,65.09 359.64,64.24 361.77,62.53 C363.89,60.82 364.96,58.55 364.96,55.74z "/>
        </g>

        <g id="_R_G_L_0_G" transform=" translate(448, 107) translate(-540, -540)">
            <g id="_R_G_L_0_G_L_3_G" transform=" translate(479, 542)">
                <path id="_R_G_L_0_G_L_3_G_D_0_P_0" fill="#000000" fill-opacity="1" fill-rule="nonzero" d=" M2.06 38.69 C2.06,38.69 2.03,0.25 2.03,0.25 C2.03,0.25 0.25,0.25 0.25,0.25 C0.25,0.25 0.25,77.33 0.25,77.33 C0.25,77.33 2.15,77.34 2.15,77.34 C2.15,77.34 2.06,38.69 2.06,38.69z ">
                    <animate repeatCount="1" dur="4.68s" begin="0s" xlink:href="#_R_G_L_0_G_L_3_G_D_0_P_0" fill="freeze" attributeName="d" attributeType="XML" from="M2.06 38.69 C2.06,38.69 2.03,0.25 2.03,0.25 C2.03,0.25 0.25,0.25 0.25,0.25 C0.25,0.25 0.25,77.33 0.25,77.33 C0.25,77.33 2.15,77.34 2.15,77.34 C2.15,77.34 2.06,38.69 2.06,38.69z " to="M7.56 38.69 C7.56,38.69 1.57,0.25 1.57,0.25 C1.57,0.25 0.25,0.25 0.25,0.25 C0.25,0.25 0.25,77.33 0.25,77.33 C0.25,77.33 1.53,77.33 1.53,77.33 C1.53,77.33 7.56,38.69 7.56,38.69z " keyTimes="0;0.1709402;0.3504274;1" values="M2.06 38.69 C2.06,38.69 2.03,0.25 2.03,0.25 C2.03,0.25 0.25,0.25 0.25,0.25 C0.25,0.25 0.25,77.33 0.25,77.33 C0.25,77.33 2.15,77.34 2.15,77.34 C2.15,77.34 2.06,38.69 2.06,38.69z ;M2.06 38.69 C2.06,38.69 2.03,0.25 2.03,0.25 C2.03,0.25 0.25,0.25 0.25,0.25 C0.25,0.25 0.25,77.33 0.25,77.33 C0.25,77.33 2.15,77.34 2.15,77.34 C2.15,77.34 2.06,38.69 2.06,38.69z ;M7.56 38.69 C7.56,38.69 1.57,0.25 1.57,0.25 C1.57,0.25 0.25,0.25 0.25,0.25 C0.25,0.25 0.25,77.33 0.25,77.33 C0.25,77.33 1.53,77.33 1.53,77.33 C1.53,77.33 7.56,38.69 7.56,38.69z ;M7.56 38.69 C7.56,38.69 1.57,0.25 1.57,0.25 C1.57,0.25 0.25,0.25 0.25,0.25 C0.25,0.25 0.25,77.33 0.25,77.33 C0.25,77.33 1.53,77.33 1.53,77.33 C1.53,77.33 7.56,38.69 7.56,38.69z " keySplines="0.955 0 0.615 1;0.955 0 0.615 1;0 0 0 0" calcMode="spline"/>
                </path>
            </g>
            <g id="_R_G_L_0_G_L_2_G" transform=" translate(479, 542)">
                <path id="_R_G_L_0_G_L_2_G_D_0_P_0" fill="#000000" fill-opacity="1" fill-rule="nonzero" d=" M19.36 38.69 C19.36,38.69 19.33,0.25 19.33,0.25 C19.33,0.25 17.54,0.25 17.54,0.25 C17.54,0.25 17.54,77.33 17.54,77.33 C17.54,77.33 19.45,77.34 19.45,77.34 C19.45,77.34 19.36,38.69 19.36,38.69z ">
                    <animate repeatCount="1" dur="4.68s" begin="0s" xlink:href="#_R_G_L_0_G_L_2_G_D_0_P_0" fill="freeze" attributeName="d" attributeType="XML" from="M19.36 38.69 C19.36,38.69 19.33,0.25 19.33,0.25 C19.33,0.25 17.54,0.25 17.54,0.25 C17.54,0.25 17.54,77.33 17.54,77.33 C17.54,77.33 19.45,77.34 19.45,77.34 C19.45,77.34 19.36,38.69 19.36,38.69z " to="M29.88 38.66 C29.88,38.66 18.86,0.25 18.86,0.25 C18.86,0.25 17.54,0.25 17.54,0.25 C17.54,0.25 17.54,77.33 17.54,77.33 C17.54,77.33 18.83,77.33 18.83,77.33 C18.83,77.33 29.88,38.66 29.88,38.66z " keyTimes="0;0.1880342;0.3675214;1" values="M19.36 38.69 C19.36,38.69 19.33,0.25 19.33,0.25 C19.33,0.25 17.54,0.25 17.54,0.25 C17.54,0.25 17.54,77.33 17.54,77.33 C17.54,77.33 19.45,77.34 19.45,77.34 C19.45,77.34 19.36,38.69 19.36,38.69z ;M19.36 38.69 C19.36,38.69 19.33,0.25 19.33,0.25 C19.33,0.25 17.54,0.25 17.54,0.25 C17.54,0.25 17.54,77.33 17.54,77.33 C17.54,77.33 19.45,77.34 19.45,77.34 C19.45,77.34 19.36,38.69 19.36,38.69z ;M29.88 38.66 C29.88,38.66 18.86,0.25 18.86,0.25 C18.86,0.25 17.54,0.25 17.54,0.25 C17.54,0.25 17.54,77.33 17.54,77.33 C17.54,77.33 18.83,77.33 18.83,77.33 C18.83,77.33 29.88,38.66 29.88,38.66z ;M29.88 38.66 C29.88,38.66 18.86,0.25 18.86,0.25 C18.86,0.25 17.54,0.25 17.54,0.25 C17.54,0.25 17.54,77.33 17.54,77.33 C17.54,77.33 18.83,77.33 18.83,77.33 C18.83,77.33 29.88,38.66 29.88,38.66z " keySplines="0.955 0 0.615 1;0.955 0 0.615 1;0 0 0 0" calcMode="spline"/>
                </path>
            </g>
            <g id="_R_G_L_0_G_L_1_G" transform=" translate(479, 542)">
                <path id="_R_G_L_0_G_L_1_G_D_0_P_0" fill="#000000" fill-opacity="1" fill-rule="nonzero" d=" M39.46 38.69 C39.46,38.69 39.43,0.25 39.43,0.25 C39.43,0.25 37.64,0.25 37.64,0.25 C37.64,0.25 37.64,77.33 37.64,77.33 C37.64,77.33 39.54,77.34 39.54,77.34 C39.54,77.34 39.46,38.69 39.46,38.69z ">
                    <animate repeatCount="1" dur="4.68s" begin="0s" xlink:href="#_R_G_L_0_G_L_1_G_D_0_P_0" fill="freeze" attributeName="d" attributeType="XML" from="M39.46 38.69 C39.46,38.69 39.43,0.25 39.43,0.25 C39.43,0.25 37.64,0.25 37.64,0.25 C37.64,0.25 37.64,77.33 37.64,77.33 C37.64,77.33 39.54,77.34 39.54,77.34 C39.54,77.34 39.46,38.69 39.46,38.69z " to="M57.41 38.69 C57.41,38.69 38.96,0.25 38.96,0.25 C38.96,0.25 37.64,0.25 37.64,0.25 C37.64,0.25 37.64,77.33 37.64,77.33 C37.64,77.33 38.92,77.33 38.92,77.33 C38.92,77.33 57.41,38.69 57.41,38.69z " keyTimes="0;0.2136752;0.3846154;1" values="M39.46 38.69 C39.46,38.69 39.43,0.25 39.43,0.25 C39.43,0.25 37.64,0.25 37.64,0.25 C37.64,0.25 37.64,77.33 37.64,77.33 C37.64,77.33 39.54,77.34 39.54,77.34 C39.54,77.34 39.46,38.69 39.46,38.69z ;M39.46 38.69 C39.46,38.69 39.43,0.25 39.43,0.25 C39.43,0.25 37.64,0.25 37.64,0.25 C37.64,0.25 37.64,77.33 37.64,77.33 C37.64,77.33 39.54,77.34 39.54,77.34 C39.54,77.34 39.46,38.69 39.46,38.69z ;M57.41 38.69 C57.41,38.69 38.96,0.25 38.96,0.25 C38.96,0.25 37.64,0.25 37.64,0.25 C37.64,0.25 37.64,77.33 37.64,77.33 C37.64,77.33 38.92,77.33 38.92,77.33 C38.92,77.33 57.41,38.69 57.41,38.69z ;M57.41 38.69 C57.41,38.69 38.96,0.25 38.96,0.25 C38.96,0.25 37.64,0.25 37.64,0.25 C37.64,0.25 37.64,77.33 37.64,77.33 C37.64,77.33 38.92,77.33 38.92,77.33 C38.92,77.33 57.41,38.69 57.41,38.69z " keySplines="0.955 0 0.615 1;0.955 0 0.615 1;0 0 0 0" calcMode="spline"/>
                </path>
            </g>
            <g id="_R_G_L_0_G_L_0_G" transform=" translate(479, 542)">
                <path id="_R_G_L_0_G_L_0_G_D_0_P_0" fill="#000000" fill-opacity="1" fill-rule="nonzero" d=" M66.66 38.69 C66.66,38.69 66.63,0.25 66.63,0.25 C66.63,0.25 64.85,0.25 64.85,0.25 C64.85,0.25 64.85,77.33 64.85,77.33 C64.85,77.33 66.75,77.34 66.75,77.34 C66.75,77.34 66.66,38.69 66.66,38.69z ">
                    <animate repeatCount="1" dur="4.68s" begin="0s" xlink:href="#_R_G_L_0_G_L_0_G_D_0_P_0" fill="freeze" attributeName="d" attributeType="XML" from="M66.66 38.69 C66.66,38.69 66.63,0.25 66.63,0.25 C66.63,0.25 64.85,0.25 64.85,0.25 C64.85,0.25 64.85,77.33 64.85,77.33 C64.85,77.33 66.75,77.34 66.75,77.34 C66.75,77.34 66.66,38.69 66.66,38.69z " to="M99.09 38.74 C99.09,38.74 66.17,0.25 66.17,0.25 C66.17,0.25 64.85,0.25 64.85,0.25 C64.85,0.25 64.85,77.33 64.85,77.33 C64.85,77.33 66.13,77.33 66.13,77.33 C66.13,77.33 99.09,38.74 99.09,38.74z " keyTimes="0;0.2307692;0.4102564;1" values="M66.66 38.69 C66.66,38.69 66.63,0.25 66.63,0.25 C66.63,0.25 64.85,0.25 64.85,0.25 C64.85,0.25 64.85,77.33 64.85,77.33 C64.85,77.33 66.75,77.34 66.75,77.34 C66.75,77.34 66.66,38.69 66.66,38.69z ;M66.66 38.69 C66.66,38.69 66.63,0.25 66.63,0.25 C66.63,0.25 64.85,0.25 64.85,0.25 C64.85,0.25 64.85,77.33 64.85,77.33 C64.85,77.33 66.75,77.34 66.75,77.34 C66.75,77.34 66.66,38.69 66.66,38.69z ;M99.09 38.74 C99.09,38.74 66.17,0.25 66.17,0.25 C66.17,0.25 64.85,0.25 64.85,0.25 C64.85,0.25 64.85,77.33 64.85,77.33 C64.85,77.33 66.13,77.33 66.13,77.33 C66.13,77.33 99.09,38.74 99.09,38.74z ;M99.09 38.74 C99.09,38.74 66.17,0.25 66.17,0.25 C66.17,0.25 64.85,0.25 64.85,0.25 C64.85,0.25 64.85,77.33 64.85,77.33 C64.85,77.33 66.13,77.33 66.13,77.33 C66.13,77.33 99.09,38.74 99.09,38.74z " keySplines="0.955 0 0.615 1;0.955 0 0.615 1;0 0 0 0" calcMode="spline"/>
                </path>
            </g>
        </g>
    </g>
    <g id="time_group"/>
</svg>
